<svg xmlns="http://www.w3.org/2000/svg" viewBox="0 0 128 128" height="32" width="32" version="1.1">
  <path fill="#3EFF46" style="fill-rule:evenodd;stroke-width:0;stroke-miterlimit:4" stroke-miterlimit="4" d="m 79.00009,54.00429 0,10 10,0 0,-10 -10,0 z m -40,0 0,10 10,0 0,-10 -10,0 z m 0,40 20,0 0,10 -20,0 0,-10 z m 50,0 0,10 -20,0 0,-10 20,0 z m 0,-60 0,-10 10,0 0,10 -10,0 z m -50,0 10,0 0,10 30,0 0,-10 10,0 0,10 10,0 0,10 10,0 0,10 10,0 0,30 -10,0 0,-20 -10,0 0,20 -10,0 0,-10 -50,0 0,10 -10,0 0,-20 -10,0 0,20 -10,0 0,-30 10,0 0,-10 10,0 0,-10 10,0 0,-10 z m -10,-10 10,0 0,10 -10,0 0,-10 z"></path>
</svg>